<?xml version="1.0" encoding="utf-8"?>
<!-- Generated by IcoMoon.io -->
<!DOCTYPE svg PUBLIC "-//W3C//DTD SVG 1.1//EN" "http://www.w3.org/Graphics/SVG/1.1/DTD/svg11.dtd">
<svg version="1.1" xmlns="http://www.w3.org/2000/svg" xmlns:xlink="http://www.w3.org/1999/xlink" width="48" height="32" viewBox="0 0 48 32">
<path fill="#444444" d="M41.368 30h-34.736c-2.559 0-4.632-2.089-4.632-4.667v-18.667c0-2.578 2.073-4.666 4.632-4.666h34.736c2.559 0 4.632 2.088 4.632 4.666v18.667c0 2.578-2.073 4.667-4.632 4.667zM14.176 14.374c0.132-0.548 0.34-1.040 0.625-1.47 0.285-0.435 0.658-0.777 1.116-1.034 0.463-0.257 1.019-0.385 1.677-0.385 0.361 0 0.704 0.058 1.033 0.177 0.329 0.121 0.625 0.287 0.884 0.499 0.263 0.215 0.48 0.462 0.653 0.742 0.174 0.28 0.285 0.59 0.335 0.929h2.826c-0.086-0.774-0.296-1.464-0.633-2.063-0.333-0.602-0.759-1.104-1.273-1.513-0.517-0.406-1.1-0.716-1.75-0.928-0.647-0.21-1.343-0.32-2.075-0.32-1.019 0-1.935 0.183-2.747 0.546-0.81 0.361-1.499 0.863-2.061 1.5-0.556 0.638-0.984 1.386-1.28 2.24-0.302 0.858-0.448 1.786-0.448 2.788 0 0.975 0.148 1.885 0.448 2.729 0.296 0.846 0.726 1.58 1.282 2.205s1.244 1.12 2.057 1.471c0.811 0.358 1.728 0.536 2.746 0.536 0.82 0 1.571-0.123 2.253-0.372 0.685-0.25 1.278-0.614 1.788-1.091 0.51-0.475 0.918-1.051 1.229-1.727 0.31-0.677 0.503-1.43 0.579-2.271h-2.83c-0.111 0.901-0.417 1.626-0.922 2.178-0.505 0.551-1.204 0.826-2.099 0.826-0.657 0-1.215-0.13-1.677-0.386-0.458-0.257-0.833-0.598-1.115-1.021-0.285-0.424-0.494-0.903-0.625-1.436-0.129-0.537-0.193-1.083-0.193-1.645 0-0.587 0.064-1.158 0.193-1.708h0.004v0.004zM27.979 14.374c0.131-0.548 0.337-1.040 0.625-1.47 0.282-0.435 0.656-0.777 1.112-1.034 0.463-0.257 1.020-0.385 1.679-0.385 0.359 0 0.704 0.058 1.033 0.177 0.323 0.121 0.625 0.287 0.88 0.499 0.265 0.215 0.479 0.462 0.655 0.742 0.173 0.28 0.284 0.59 0.333 0.929h2.833c-0.088-0.774-0.303-1.464-0.636-2.063-0.333-0.602-0.759-1.104-1.272-1.513-0.517-0.406-1.102-0.716-1.751-0.928-0.652-0.21-1.343-0.32-2.077-0.32-1.020 0-1.934 0.183-2.746 0.546-0.812 0.361-1.5 0.863-2.062 1.5-0.557 0.638-0.983 1.386-1.283 2.24-0.296 0.858-0.445 1.786-0.445 2.788 0 0.975 0.149 1.885 0.445 2.729 0.302 0.846 0.728 1.58 1.284 2.205 0.558 0.625 1.246 1.12 2.062 1.471 0.812 0.358 1.726 0.536 2.744 0.536 0.819 0 1.569-0.123 2.253-0.372 0.684-0.25 1.278-0.614 1.788-1.091 0.51-0.475 0.92-1.051 1.228-1.727 0.313-0.678 0.506-1.43 0.579-2.271h-2.829c-0.116 0.901-0.418 1.626-0.923 2.178-0.505 0.551-1.203 0.826-2.096 0.826-0.657 0-1.217-0.13-1.677-0.386-0.464-0.257-0.835-0.598-1.118-1.021-0.287-0.424-0.493-0.903-0.625-1.436-0.131-0.537-0.194-1.083-0.194-1.645 0-0.587 0.063-1.158 0.194-1.708h0.006v0.004z"></path>
</svg>
