<?xml version="1.0" encoding="utf-8"?>
<!-- Generated by IcoMoon.io -->
<!DOCTYPE svg PUBLIC "-//W3C//DTD SVG 1.1//EN" "http://www.w3.org/Graphics/SVG/1.1/DTD/svg11.dtd">
<svg version="1.1" xmlns="http://www.w3.org/2000/svg" xmlns:xlink="http://www.w3.org/1999/xlink" width="32" height="32" viewBox="0 0 32 32">
<path fill="#444444" d="M21.1 16l7.7 7.7c1.5 1.5 1.5 3.9 0 5.1-1.5 1.5-3.9 1.5-5.1 0l-7.7-7.7-7.7 7.7c-1.5 1.5-3.9 1.5-5.1 0-1.5-1.5-1.5-3.9 0-5.1l7.7-7.7-7.7-7.7c-1.5-1.5-1.5-3.9 0-5.1 1.5-1.5 3.9-1.5 5.1 0l7.7 7.7 7.7-7.7c1.5-1.5 3.9-1.5 5.1 0 1.5 1.5 1.5 3.9 0 5.1l-7.7 7.7z"></path>
</svg>
