<?xml version="1.0" encoding="utf-8"?>
<!-- Generated by IcoMoon.io -->
<!DOCTYPE svg PUBLIC "-//W3C//DTD SVG 1.1//EN" "http://www.w3.org/Graphics/SVG/1.1/DTD/svg11.dtd">
<svg version="1.1" xmlns="http://www.w3.org/2000/svg" xmlns:xlink="http://www.w3.org/1999/xlink" width="36" height="32" viewBox="0 0 36 32">
<path fill="#444444" d="M23.481 14.802l-17.975-12.35c-1.427-0.956-2.598-0.254-2.598 1.56v23.979c0 1.809 1.17 2.51 2.598 1.56l17.975-12.355c0 0 0.696-0.497 0.696-1.193 0-0.699-0.696-1.2-0.696-1.2zM27.863 1.027h2.496c1.38 0 2.496 0.12 2.496 1.497v26.951c0 1.377-1.115 1.497-2.496 1.497h-2.496c-1.38 0-2.496-0.12-2.496-1.497v-26.951c0-1.377 1.115-1.497 2.496-1.497z"></path>
</svg>
